<svg width="800" height="600" xmlns="http://www.w3.org/2000/svg">
    <style>
        .entity { fill: #f0f0f0; stroke: #000; stroke-width: 2; }
        .property { fill: #ffffff; stroke: #000; stroke-width: 1; }
        .arrow { fill: none; stroke: #000; stroke-width: 2; }
    </style><rect x="50" y="50" width="200" height="40" class="entity" />
<text x="60" y="75" font-size="14">Employee</text><rect x="50" y="110" width="180" height="30" class="property" />
<text x="60" y="130" font-size="12">id: kotlin.Long?</text><line x1="240" y1="125" x2="260" y2="125" class="arrow" /><rect x="50" y="160" width="180" height="30" class="property" />
<text x="60" y="180" font-size="12">address: {id=kotlin.Long?, addressId=kotlin.String, city={id=kotlin.Long?, cityId=kotlin.String, name=kotlin.String}, street=kotlin.String}</text><line x1="240" y1="175" x2="260" y2="175" class="arrow" /><rect x="50" y="210" width="180" height="30" class="property" />
<text x="60" y="230" font-size="12">name: kotlin.String</text><line x1="240" y1="225" x2="260" y2="225" class="arrow" /><rect x="300" y="50" width="200" height="40" class="entity" />
<text x="310" y="75" font-size="14">AEntity</text><rect x="300" y="110" width="180" height="30" class="property" />
<text x="310" y="130" font-size="12">id: kotlin.Long?</text><line x1="490" y1="125" x2="510" y2="125" class="arrow" /><rect x="300" y="160" width="180" height="30" class="property" />
<text x="310" y="180" font-size="12">name: kotlin.String</text><line x1="490" y1="175" x2="510" y2="175" class="arrow" /><rect x="550" y="50" width="200" height="40" class="entity" />
<text x="560" y="75" font-size="14">BEntity</text><rect x="550" y="110" width="180" height="30" class="property" />
<text x="560" y="130" font-size="12">id: kotlin.Long?</text><line x1="740" y1="125" x2="760" y2="125" class="arrow" /><rect x="550" y="160" width="180" height="30" class="property" />
<text x="560" y="180" font-size="12">name: kotlin.String</text><line x1="740" y1="175" x2="760" y2="175" class="arrow" /><rect x="800" y="50" width="200" height="40" class="entity" />
<text x="810" y="75" font-size="14">CEntity</text><rect x="800" y="110" width="180" height="30" class="property" />
<text x="810" y="130" font-size="12">id: kotlin.Long?</text><line x1="990" y1="125" x2="1010" y2="125" class="arrow" /><rect x="800" y="160" width="180" height="30" class="property" />
<text x="810" y="180" font-size="12">name: kotlin.String</text><line x1="990" y1="175" x2="1010" y2="175" class="arrow" /><rect x="1050" y="50" width="200" height="40" class="entity" />
<text x="1060" y="75" font-size="14">FEntity</text><rect x="1050" y="110" width="180" height="30" class="property" />
<text x="1060" y="130" font-size="12">id: kotlin.Long?</text><line x1="1240" y1="125" x2="1260" y2="125" class="arrow" /><rect x="1050" y="160" width="180" height="30" class="property" />
<text x="1060" y="180" font-size="12">name: kotlin.String</text><line x1="1240" y1="175" x2="1260" y2="175" class="arrow" /><rect x="1300" y="50" width="200" height="40" class="entity" />
<text x="1310" y="75" font-size="14">ZEntity</text><rect x="1300" y="110" width="180" height="30" class="property" />
<text x="1310" y="130" font-size="12">id: kotlin.Long?</text><line x1="1490" y1="125" x2="1510" y2="125" class="arrow" /><rect x="1300" y="160" width="180" height="30" class="property" />
<text x="1310" y="180" font-size="12">name: kotlin.String</text><line x1="1490" y1="175" x2="1510" y2="175" class="arrow" /></svg>